<?xml version="1.0" encoding="utf-8"?>
<!-- Generator: Adobe Illustrator 16.0.0, SVG Export Plug-In . SVG Version: 6.00 Build 0)  -->
<!DOCTYPE svg PUBLIC "-//W3C//DTD SVG 1.1//EN" "http://www.w3.org/Graphics/SVG/1.1/DTD/svg11.dtd">
<svg version="1.1" id="Logo" xmlns="http://www.w3.org/2000/svg" xmlns:xlink="http://www.w3.org/1999/xlink" x="0px" y="0px"
	 width="389.003px" height="158.854px" viewBox="0 0 389.003 158.854" enable-background="new 0 0 389.003 158.854"
	 xml:space="preserve">
<rect y="0.001" fill="none" width="389.003" height="158.853"/>
<g>
	<path fill="#000066" d="M210.7,87.977v13.496c-7.59,3.81-14.725,5.714-21.858,5.714c-19.786,0-31.677-11.597-31.677-26.342
		c0-15.891,13.607-29.01,30.916-29.01c4.282,0,7.518,0.765,10.909,1.884c2.432,0.761,3.932,1.633,5.453,1.633
		c1.336,0,1.707-2.22,1.898-3.517h1.887l1.716,18.258h-2.287c-0.935-3.613-2.646-6.577-4.93-8.654
		c-3.552-3.615-8.462-5.52-14.073-5.52c-11.892,0-18.831,9.419-18.831,23.596c0,13.981,8.467,23.485,19.776,23.485
		c3.331,0,6.377-0.761,10.104-2.476V86.639c0-4.463-0.714-6.179-7.151-6.179v-2.089h23.889v2.089
		C210.51,80.46,210.7,82.365,210.7,87.977z M144.904,65.718v40.522h-3.135l-40.524-41.857c0.19,1.145,0.19,2.096,0.19,3.235v25.497
		c0,7.789,0,10.641,7.133,10.641v2.093H89.546v-2.093c7.209,0,7.209-3.424,7.209-10.641V64.048c0-4.319,0-9.059-7.59-9.059v-2
		h17.944l33.326,34.223c-0.19-0.949-0.19-1.518-0.19-2.852V65.718c0-7.515,0.19-10.729-6.963-10.729v-2h19.018v2
		C145.279,54.989,144.904,58.019,144.904,65.718z M52.814,105.849v-2.093c4.571,0,7.807-0.38,7.807-6.996V62.008
		c0-6.849-2.476-7.019-7.807-7.019v-2h26.793v2c-5.489,0-7.77,0.17-7.77,7.019V96.76c0,6.616,2.859,6.996,7.77,6.996v2.093H52.814z"
		/>
	<path fill="#FF6200" d="M263.235,105.849c-0.953-1.708-1.144-4.376-1.144-4.944c0-0.949,0-2.287,0.572-3.203l-2.093,0.396
		c-0.57,0.713-0.761,1.104-0.761,1.47l0.953-0.365c0.19,0,0.381,0.365,0.567,0.754c-0.187,0.949-1.33,0.949-1.711,1.33
		c-0.568,1.902,1.144,3.044,1.334,4.563H263.235z M336.278,81.416c0-8.279-3.419-16.646-9.52-22.642
		c-2.642-2.665-5.538-3.943-7.828-6.566c-1.139-1.134-2.014-2.275-2.774-3.798c-0.957-0.953-1.531-1.522-2.67-2.091
		c0.194,0.569,0.387,1.138,0.58,1.71h-0.193c-0.953,0-1.908-0.573-2.658-1.142l0.75-0.765c-0.192-0.354-0.75-0.354-1.144-0.354
		c-3.042-0.514-5.824,1.119-8.779,1.688v0.384c1.896,0.569,2.25,2.854,3.303,3.994c0.181,0,0.362,0,1.099,0
		c0.381,0,0.955,0.373,1.336,0.373c0-0.373-0.381-1.134-0.381-1.134c0.381-0.378,0.765-0.378,1.14,0
		c0.949,0.573,2.283-0.378,3.234,1.134c-1.138,0-2.285,0-3.234,0.587c0,0.194,0.578,0.532,0.385,0.923
		c-0.946-0.392-2.099,0-2.479-0.729l-0.188,0.143c1.144,1.348,2.861,2.41,4.566,2.978c2.476,0.384,4.571-0.757,6.971-0.19
		c8.588,4.195,14.684,13.986,14.684,23.781c0,13.984-7.994,19.502-12.969,19.502c-0.953,0-2.407-0.584-2.971-1.104
		c0.563-1.945,0.909-4.217,0.909-7.649c0-8.083-3.192-16.838-7.571-21.305c-2.095-2.095-4.349-3.805-6.688-3.805
		c-1.144,0-2.291,0-3.046,0.95c-0.951,0.761-1.528,2.283-1.334,3.234c-1.522,1.143-3.99,1.71-5.893,1.71
		c-2.098,0-4.754-0.759-7.099-2.662c0-0.761,0-1.71,0-2.852c-0.55-0.19-2.445-1.334-1.5-2.203c0.573,0.196,0.95,0.532,1.144,0.687
		c-0.193-1.241-0.193-2.765-1.144-3.908c-0.384,0-0.945,0-1.517-0.381c-0.572-0.565-1.154-1.326-1.154-2.279
		c0.582,0.953,1.526,0.569,2.097,1.14c-0.942-2.281-0.57-3.232-2.279-6.566c-0.384-1.703-2.095-2.656-3.232-3.798
		c-0.571-0.38-0.758-0.953-1.456-0.953c-0.753-0.187-0.753-1.138-0.753-1.688c0.188,0,0.753,0.354,1.128,0.55
		c-1.128-2.586-1.893-5.419-4.36-6.945l-0.58,0.377c-0.948,0-2.089,0-3.042,0c0.376-0.377,1.139-0.568,1.714-0.947
		c-0.575-0.573-0.948-0.765-2.078-0.765c-0.522,0.192-1.22,0.765-1.949,0.765h-0.183c0-0.573-0.197-1.333,0.912-1.712
		c-1.109-0.194-2.062-0.194-3.396,0c-0.19,0.948-0.756,1.521-0.756,2.282c-0.566,0.377-0.765,0.95-1.337,1.526
		c0-1.149,0.572-2.288,0.771-3.429c-0.771,0.188-1.718,0.761-2.099,0.761c-1.522-0.761-3.427-1.515-4.189-1.515
		c1.144,0.754,0.58,2.087,0.763,3.034l-0.763-0.377c-0.183-0.762-1.142-1.334-1.322-2.282c-1.147,0-1.912,0.379-2.861,0.948v0.192
		c0.567,0,1.334,0.573,1.714,1.143c-1.33,0-2.284-0.57-3.618-0.57c0,0,0-0.192-0.174-0.192c-0.514,0.192-1.034,0.762-1.38,1.139
		c-1.335,1.149-2.283,2.095-2.854,3.79c0.381,0,0.951,0,1.146,0.192c-0.765,0.188-1.146,1.14-1.906,1.333c0,0.702,0,1.821,0,2.774
		c-0.571,0.569-1.33,1.138-1.711,2.279c-0.951,3.011-1.146,6.373-1.146,10.174c-0.187,0.765-0.563,0.955-0.947,1.144v2.946
		c0,0,1.142-1.062,1.712-1.422c0,0.75,0,1.808,0,2.376c-0.765,0-1.328,0.95-1.328,1.522c0,0.759,0.19,1.522,0.19,2.283
		c0,0.379,0,0.379,0.187,0.761c0-0.382,0.381-0.761,0.951-0.95c0,0,0.381-0.384,1.14-0.384c-0.564,0.573-0.759,1.334-1.14,2.095
		c-0.57,0.567-0.57,0.567-0.57,0.567s-0.194,0.382-0.194,0.574c0.765,3.897,1.904,7.322,3.431,11.049
		c-1.526,2.453-3.236,7.212-4.378,11.774c-0.951-0.946-2.285-1.135-3.429-1.135c-1.067,0.188-2.201,0.569-2.972,1.711
		c-1.142-0.576-2.654-0.385-3.39,0.384c-1.577,1.361-1.577,2.111-1.577,3.22c-0.385,0.392-1.151,1.337-1.151,2.663
		c0,1.715,0.19,2.856,1.151,4.376h28.525c-0.194-0.566-0.574-1.324-0.955-1.708c-0.563-1.142-0.187-2.668-0.187-3.809
		c0.567-1.131,1.142-2.235,1.904-3.196c0.185-0.576,0-0.576,0.185-0.761l1.334-0.224c0.757,0,1.328-0.562,2.281-0.562
		c0.574,0.785,0.574-0.576,1.531-0.96c2.085-0.381,4.034,0,5.164,1.521c0,0.224,0.188,0.224,0.188,0.408c-0.188,0-0.577,0-0.953,0
		c-1.064-0.408-2.313-0.97-3.646-0.408c0,0.408-0.184,0.408-0.184,0.984c0,0.377,0,0.377,0,0.961c0.75,0,1.334,0.713,2.071,1.104
		c0.349-0.584,1.395-1.104,2.135-1.104c0.953,0,2.287,0.521,2.287,2.05c0,0.758,0,1.519,0,2.092
		c0.765,0.761,1.712,0.949,2.663,1.326c-0.376,0.765-0.951,0.765-1.523,0.765h-1.515c-0.194-0.188-0.574-0.188-0.574-0.765
		c-0.575,0.765-0.948,1.529-1.338,2.284h22.029c-0.371-0.755-0.755-1.324-0.945-1.708c-0.381-1.142-0.381-2.668-0.381-3.809
		l2.095-2.819c1.136,0,2.093-0.377,4.182-0.562c0.387-0.576,0-0.8,1.715-0.8c1.329,0,2.284,0.224,2.659,0.408
		c0.192,0.392,0.192,0.392,0,0.765c-0.375,0.377-1.136-0.373-1.706-0.188c-0.383,0.377,0.193,0.565,0.193,0.961
		c0.377,0.329-1.714-0.396-1.714-0.396s-0.385,1.108-0.571,1.5c0,0,0.758,0.754,1.139,1.131c0.376,0.572-0.567,1.141-0.567,1.714
		c-0.385-0.188-1.147-0.761-1.147-0.573c-0.384,1.526,0,2.856-0.185,4.376c0.761,0,1.332,0,2.086,0l0.189-3.23
		c0.194-1.906,2.476-5.294,3.812-5.294c0.763,0,1.329,0.377,1.869,0.772c0.347,0.713,1.233,1.104,1.233,1.47
		c0,0.389-0.528,0.58-1.413,0.58c-0.36,0-0.36-0.58-0.927-0.945l-1.144,1.131c0,0,1.326,1.141,1.326,1.906
		c0,0.949-0.183,1.326-0.759,1.902l-1.142-2.283c-0.573,0-1.519,1.142-1.519,1.707c0,0.765-0.385,1.145-0.385,2.284h11.65
		c1.324,0,2.466-0.375,3.794-1.14c0.767,0,1.33,0,2.272,0c4.695,0,8.338-1.333,11.77-4.754
		C333.617,95.59,336.278,88.361,336.278,81.416z M295.378,98.618l-1.904,0.192c0.771,0.392,0.771,1.337,0.771,1.522
		c0,0.572-0.388,1.141-0.771,1.525c-0.377-0.385-0.377-0.953-0.757-1.525c-0.379,0-0.569,0.953-0.569,1.333
		c0,1.711,0.765,3.044,1.326,4.184h1.718c-0.19-1.52-0.578-2.85-0.578-4.563C294.614,100.333,295.192,99.202,295.378,98.618z
		 M270.494,100.905c0-0.758-0.563-0.949-1.329-0.949c-0.364,0-1.234,0.568-1.234,0.949c0,0.761-0.35,4.944-0.35,4.944h1.22
		C269.354,104.141,270.494,101.858,270.494,100.905z M266.471,100.712c-0.198,0,0.197,0.385-1.705-1.511
		c-0.39,0-0.957,1.131-0.957,1.511c0,1.526,0.375,3.617,0.957,5.137h1.507C266.273,104.141,266.471,102.239,266.471,100.712z
		 M316.156,52.989c-0.381-0.781-1.147-1.154-1.718-1.154c-0.565-0.761-1.328-1.714-2.094-1.714c0.575,0,1.336-0.569,2.28-0.569
		c0.384,0.953,1.15,1.522,1.337,2.283L316.156,52.989z M310.44,48.979c-0.757,0-1.324,0-2.089,0c-0.375-0.569-0.953,0-1.333,0
		c-0.385,0-0.575,0-1.312-0.569c1.117,0,1.691-0.569,2.645-0.953C309.116,48.029,309.874,48.221,310.44,48.979z M305.877,70.665
		c-1.239-0.376-1.939-0.948-3.079-0.948c-0.376,0-2.095,0.571-2.279,0.948c-0.57-0.761,0.375-2.283,1.142-2.664
		c0.762-0.382,1.138-0.192,1.524,0c0,1.142,1.283,0.569,1.983,0.953C305.525,69.522,305.707,69.904,305.877,70.665z M305.707,73.421
		c-1.068,0-1.238-0.153-1.955-0.153c-0.953,0-2.091,0.342-2.665,1.292c-0.383-0.757-0.192-1.138,0-1.611
		c0.574-0.565,1.522-1.333,2.281-1.333C304.638,71.615,305.707,72.568,305.707,73.421z M310.064,77.612
		c-1.526-0.948-3.81-1.531-5.067-1.531c-0.705,0-2.955,0.957-3.715,1.714l-0.388-1.714c1.147-0.192,1.147-1.146,1.904-1.146
		c0.569,0,1.313-0.19,1.84-0.19c0.53,0,0.887-0.362,1.068-0.362c0.927,0,0.548,0.942,1.117,0.942c0.574,0,0.955-0.39,1.339-0.39
		C309.116,74.936,309.874,76.471,310.064,77.612z M310.634,81.792c-1.332,0-2.658-0.377-2.855-0.948
		c-0.381-0.384,0-1.145-0.955-1.145c-0.381,0-0.946,0.572-0.946,0.572c-0.353,0.188-1.409-0.572-1.409,0
		c0,0.949-0.717,1.33-1.67,1.33c-0.376,0-0.757,0-1.138-0.187c0-0.571,0-1.333,0-1.901c2.451,0,2.277-0.765,3.336-0.765
		c0.71,0,1.258,0.379,1.827,0.379c0.955,0,0.388-0.379,1.339-0.379c0.953,0,1.324,0.765,1.901,0.95
		C310.064,80.272,310.634,81.037,310.634,81.792z M308.922,85.878c-0.571-0.185-1.904-0.377-1.904-0.946
		c0-0.761-0.385-0.953-1.312-0.953c-0.71,0-1.238,0.192-2.339,0.569c0,0-0.569-0.761-0.759-1.504c0.382-0.188,1.859-0.55,2.56-0.55
		c1.274,0,2.61,0,2.61,0.55C307.779,83.788,308.922,83.979,308.922,85.878z M276.019,56.301c0,0.192-0.385,1.903-0.385,1.903
		l-1.52,0.384l0.947-4.108C275.45,55.159,276.019,55.918,276.019,56.301z M312.539,92.542c0,1.142,0,1.522-0.574,2.472l-1.144-1.714
		c0.394-0.565,0.394-1.326,0.951-2.279C311.964,91.021,312.539,92.347,312.539,92.542z M307.976,90.068
		c-1.343,0-0.578-2.664-3.338-2.664c-0.526,0-0.887,0.957-1.647,1.142c0-0.185,0.194-1.334,0.194-1.334
		c0-0.38,0.183-1.141,0.927-1.518c1.413,0,1.057,0.568,2.143,0.945c0.569,0.192,0.957,0.572,1.722,0.572V90.068z M296.136,79.321
		c-1.705-0.949-2.662-2.656-4.184-4.385c1.521,0,1.904,1.535,3.049,1.729c0.377,0.373,0.764,0.563,1.135,1.13
		C296.136,78.372,296.136,78.75,296.136,79.321z M279.94,65.338c-1.142,0-1.712-0.569-2.283-1.626c0-0.572-0.187-1.319,0-2.273
		c0.377,0.763,0.377,1.145,0.762,1.523c0.757-0.378,0.757,0.554,0.947,0.75C279.562,64.203,279.94,64.769,279.94,65.338z
		 M311.214,97.513c-0.394,0.584-0.394,0.584-0.58,1.104c0-0.916-1.147-1.481-1.906-3.027l0.759-1.341
		c0.577,0.381,1.334,0.957,1.334,1.902c0,0-0.187,0.408,0,0.8C310.821,97.136,311.214,97.136,311.214,97.513z M307.398,92.163
		c0,0.757-0.187,0.953-0.38,1.902c-1.312-0.185-1.312-1.718-1.493-1.902c-0.887-1.142-2.157-0.188-3.103-0.188
		c-0.381-1.142,0.187-1.142,0.187-1.906c0.576,0,1.143-0.385,1.683,0c0.877-0.385,1.415,0.572,2.342,0.572
		C306.824,91.021,307.211,91.974,307.398,92.163z M297.854,84.36c0,0.765-0.381,1.334-0.187,2.095
		c-0.385-1.146-1.147-2.283-1.531-3.41c0-0.188-0.19-0.188,0.199-0.377c0.185,0,0.947,0,0.947,0.188
		C297.473,83.218,297.854,83.788,297.854,84.36z M281.27,69.522c-0.193,0.767-0.953,0-1.134,0c-0.574,0-1.338,0-1.718,0
		c-0.19-0.379-0.385-0.567-0.385-0.952c0.765-0.188,1.332-0.569,1.906-0.188C280.317,68.955,280.698,69.522,281.27,69.522z
		 M285.458,73.802c-0.57,0.582-2.089,0.757-3.232-0.192l1.515-0.661C284.314,73.421,285.078,73.609,285.458,73.802z M295.192,84.548
		c0,1.146-0.19,2.479-0.19,3.812c-0.57,0-0.57-0.384-0.57-1.149c-0.187-1.141-0.574-2.087-0.957-3.232
		c-0.377-1.484-1.326-2.758-2.081-4.464c-0.194-0.765-1.149-1.143-1.912-1.72c0.949,0,1.912,0,2.667,0.765
		c0,0.378,0.19,0.569,0.765,1.14c1.332,0,0.944,1.716,2.089,2.477c-0.57,0.491-0.757,0.868-1.145,1.23
		C294.431,83.788,295.001,83.979,295.192,84.548z M287.763,78.938c0,0.576-0.362,0.761-0.721,1.144c0,0-0.696-0.953-0.696-1.332
		c0-0.768,0-1.138,0.176-1.712C287.042,77.612,287.763,78.372,287.763,78.938z M305.525,96.152c0,0.072-0.356,0.408-0.356,0.408
		c-0.877-0.408-1.417-0.597-2.56-0.597c0-0.757-0.567-1.714-0.948-1.714c-1.142,0-0.957,0.765-1.902,0.765l1.709-1.714
		c0.193-0.381,0.193-0.381,0.574-0.381c0.567,0.381,0.757,0.576,1.326,0.576c0,0.385,0,0.569-0.183,1.135
		c0.566,0.384,0.927-0.188,1.283,0.384C304.997,95.207,305.525,95.395,305.525,96.152z M290.244,83.044
		c0,0.362-0.572,0.743-0.763,0.743c0,0-0.955-0.932-1.133-1.803c-0.189-0.764,0.562-2.097,0.562-2.097
		c0.19,0,0.385,0.384,0.571,0.384c0.19,0.188,0,0.765,0.19,1.33C290.244,81.985,290.625,82.667,290.244,83.044z M275.634,64.769
		c-2.283-1.253-4.756-2.186-7.534-2.376c0,0.569,0,1.123-0.17,1.319c2.188,1.058,4.276,2.007,6.185,3.716v1.716
		c-1.908-1.901-3.997-3.805-6.36-4.374c-0.174,0.38-0.903,0.759-1.086,1.519c-1.334-0.95-2.859-1.904-4.387-2.085
		c-0.571,0-0.951-2.002-0.951-2.002c0.951-0.381,1.531-0.951,1.904-1.906c0.193,0,0.574,0,0.759,0c0.573,0,0.573-0.381,0.573-0.946
		c0-1.145-2.476-1.145-3.613-1.145c-1.334,0-2.281,0-3.056,0.57c-0.367,0-0.181,0.575-0.181,0.955c0,0.185,0.567,0.565,0.567,0.565
		c0.388,0,0.767-0.381,1.15-0.381c-0.194,1.146,0.185,1.718,1.328,2.287l-0.192,1.847c-2.286,0-3.807,0.906-5.514,1.67
		c-0.578-0.38-0.953-0.949-1.333-1.516c-2.289,0.751-6.127,3.799-6.127,3.799s0-0.759,0-1.33c1.681-1.522,3.838-2.288,5.55-3.156
		v-1.315c-0.757-0.381-1.518,0-2.275,0c-1.594,0.192-3.274,0.938-4.412,1.847c0-0.532-0.19-1.275-0.19-1.275
		c2.098-1.141,4.603-2.094,7.07-1.714c0-0.188,0-0.765,0-0.765c-0.192-0.381-0.192-0.946-0.565-0.946
		c-1.145-1.145-2.288-2.856-2.288-3.997l0.767-0.362c-0.381-1.079-0.767-3.916,0-4.869c-1.106-0.569-2.15-1.522-2.505-2.279
		c-0.381-0.953-0.765-1.522-0.961-2.586c0.58-1.142,0.961-1.522,1.491-2.649c0.349,0,0.868-0.187,1.034-0.569
		c0.94-0.192,1.508-1.138,2.646-0.565c0.767,0,1.521,0.373,2.1,0.565c0,0.382,0,0.569,0.375,0.95c1.142,0,1.142,1.126,1.722,2.08
		c0.563,0.188,1.131,0.188,1.519,0.188c1.138,0.351,2.091,0.351,2.472,0.868c1.52-0.868,3.04-1.057,4.754-0.868
		c0.187-0.573,0.573-1.333,0.771-2.268c0.183,0.554,0.183,0,0.563,0c0.698-0.567,1.568-1.515,2.886-1.142
		c0.761,0.574,2.089,0.192,2.85,1.142c0.572,0.746,0.953,1.886,1.523,2.782c-0.57,1.119,0,2.641-1.14,3.21l-1.145,1.141
		c-0.379,0-0.379,0.384-0.948,0.384c0.569,1.33,0.194,3.214-0.38,4.485c0.38-0.159,0.949-0.159,0.949-0.7c0.194,0.19,0,0.541,0,0.7
		c0,0.362,0,0.552,0,0.552c0,0.951-0.569,1.904-1.334,2.662c-0.376,1.145-1.329,2.667-2.563,2.855v0.379
		c2.754,0,5.037,0.763,7.704,2.078V64.769z M283.369,76.665l-0.957,0.373c-2.095,0-3.046-0.567-3.993-1.333
		c0.757,0,1.718-0.958,1.718-0.958C281.077,75.704,282.412,76.471,283.369,76.665z M278.034,72.383
		c-1.071,0-2.399,0.565-2.972-0.576c0.388-0.192,0.765-0.761,1.146-1.142L278.034,72.383z M293.474,90.068
		c0,0.953-1.136,2.095-1.521,2.852c0.386-0.945,0.386-2.852,0-2.852c-0.383-0.188-1.138,0-1.138-0.385
		c0-0.572,0.189-1.322,0.189-1.706c0-0.766-0.574-1.146-0.574-1.522c0-1.146,1.338-1.33,1.718-2.095
		c0.19,0.765,0.19,1.519,0.19,2.472c0,0.38,0.574,1.529,0,2.475C292.338,89.879,293.474,89.499,293.474,90.068z M289.1,87.977
		c0,1.134-0.752,2.091-0.941,3.235c0-1.145-0.196-2.102-0.94-2.852c0-0.384,0.545-0.384,0.183-0.957c0,0-1.055-0.572-1.055-1.333
		c0-0.762,0.696-1.334,1.055-1.899c0-0.192,0.758,0.377,0.758,1.522c0,0.185,0,0.761-0.196,1.138
		C287.763,87.404,289.1,87.404,289.1,87.977z M273.54,74.559c-0.947,0.187-1.712-0.757-2.661-1.138
		c-0.385-1.038-0.385-2.188-0.761-2.756c0.761,0.567,2.475,0.567,2.089,2.283C272.207,73.421,272.967,73.802,273.54,74.559z
		 M278.798,79.888c-0.765,0-2.026,0-2.779-0.567c-1.149-0.571-1.528-0.949-2.099-1.526c0.761-0.567,1.714-0.567,2.099-0.757
		C276.772,77.795,277.47,79.129,278.798,79.888z M247.03,50.695l-1.32,0.378l0.183-0.953c0.377-0.569,0.567-1.141,1.138-1.71V50.695
		z M271.258,77.038c-0.765,0.19-2.094,0.575-2.458-0.373c-1.046-1.729-0.522-3.244,0-4.474c0.364,1.077,0.554,2.192,0.74,3.135
		C269.737,76.081,270.878,76.471,271.258,77.038z M265.898,66.671c-0.193,1.138-0.563,2.851-1.714,3.617
		c0-0.767-0.375-1.146-0.756-1.718c-0.193,0,0,0.573-0.193,0.573c0,0.379-0.373,1.146-0.373,1.902
		c-0.388,0.187-1.151,0.569-1.908,0.187v-0.567c-0.19-0.376-0.19-1.143-0.19-1.522l-0.192-0.188c-0.57,0.188-0.57,0.567-0.57,0.95
		c-0.19,0.384-0.565,0.761-0.565,1.328c-0.763,0-1.15-0.187-1.718-0.567v-1.71c0-0.384,0-0.384-0.187-0.384l-0.957,0.952
		c-0.761-0.567-0.951-2.095-0.951-3.042c3.05-1.71,6.852-1.142,9.144-0.192C265.141,66.479,265.518,66.479,265.898,66.671z
		 M275.634,81.985c0,0-0.38,0-0.572,0c-2.095,0.683-3.804-0.569-5.521-1.713c0.953-0.384,2.287-0.572,3.427-0.572l0.572,1.145
		C274.115,81.037,275.062,81.602,275.634,81.985z M247.414,53.327l-0.954,1.153c0.189,1.821-0.567,3.155-0.567,4.869l-0.955-3.048
		c0.19-0.759,0.381-1.47,0.955-2.39L247.414,53.327z M266.851,77.795c-0.953-0.567-2.667-0.757-2.284-1.906
		c0.38-0.953,0.951-1.143,1.331-1.505C266.084,75.704,266.273,76.665,266.851,77.795z M284.314,97.136h-0.189
		c-0.385-0.576-0.575-0.984-0.955-0.984c0.57-2.087-0.567-3.805-0.944-5.512v-0.572c0.572,0.953,2.089,1.906,1.899,2.852
		C284.314,94.63,284.314,96.152,284.314,97.136z M279.94,90.068c-0.955,0-1.712,0-2.283-0.957c-0.187,0-0.51-0.565-0.694-0.185
		c-0.943,0.757-1.9-0.565-3.042-0.381c-0.569,0.565-1.134,0.953-2.093,1.138v-0.185c0-0.572,0.379-1.138,1.14-1.521
		c1.147,0.384,2.095-2.099,3.24-0.766c0.564,0.192,1.097,0.192,1.449,0.192C278.985,87.977,279.366,89.111,279.94,90.068z
		 M262.664,74.746c0,1.335-0.189,3.049-1.52,3.626l-0.381-1.901C261.331,76.081,261.901,75.704,262.664,74.746z M268.976,83.044
		c-0.354,0.362-1.396,0.743-2.125,0.743c-1.146-0.932-1.904-1.995-3.042-3.516l3.042,0.573
		C267.406,81.221,268.457,82.495,268.976,83.044z M280.317,93.88c-0.755-0.58-1.898-0.58-2.283-1.533
		c-0.729-0.185-1.262-0.185-2.207-0.185c-0.765,0.185-1.712,0.185-2.476,0.185c-0.197,0,0-0.185-0.384-0.373
		c-1.14,0.373-2.283,0.373-3.427,1.521l0.953-2.283c0.765,0,1.334-0.38,1.713-0.38c0.761-0.192,1.333-0.192,1.908-0.192v0.192
		c2.093,0,4.49-0.192,6.021,1.515L280.317,93.88z M258.672,77.795c-1.142-1.13-2.099-2.091-2.099-3.236c0.58,0,1.144,0,1.711,0.376
		C258.285,75.889,258.672,76.665,258.672,77.795z M255.057,72.383l-0.578,2.363c-0.565-1.136-1.14-2.178-1.332-3.513L255.057,72.383
		z M282.225,97.702c-0.193,0.396-0.582,1.5-0.765,2.254c-0.384-1.146-0.763-2.819-2.095-2.819c-0.19-0.761-0.381-0.984-1.138-1.546
		l-1.456-0.195c0.19,0.757,1.262,0.757,0.532,1.741c0.729,0.565,1.301,0.565,1.681,1.481c0.381,0.584,0,1.338,0.19,1.715
		l-1.142,0.572c0-0.949,0.194-2.808-1.071-3.203c-1.136,0.396-1.328-1.142-2.093-1.55c-0.379,0-0.379-0.945-0.949-0.562
		c-0.953,0.562-2.093,0-3.042,0.562l0.949-1.521c0.765-0.565,1.523-0.381,2.287-0.565l1.52-0.185c1.513,0,2.784,0.75,4.306,1.326
		c0.758,0.384,1.137,0.945,1.137,1.745C281.46,97.136,282.225,97.136,282.225,97.702z M267.232,88.926h-0.381
		c-0.183,0-1.517-0.565-1.904-0.949c-0.181-0.573-0.181-1.146-0.181-1.146c0.568,0,0.938,0,1.507,0L267.232,88.926z M252.584,75.326
		c-1.149-0.39-2.438-1.524-2.958-2.377c-0.349-0.757-0.524-1.716-0.524-2.283c0.696,0,1.21,0.567,1.384,0.95v0.192
		C251.435,72.948,252.39,73.802,252.584,75.326z M261.71,81.985c-0.183,1.06-0.757,1.422-1.71,2.752
		c-0.565,0.388-1.716,0.572-2.847,1.142c0.183-0.569,0.744-0.754,1.131-1.33c0.388-0.569,1.15-1.504,1.335-2.054
		C260.571,81.985,260.954,81.985,261.71,81.985z M275.634,100.333l-0.572,0.572c-0.571-0.572-0.192-2.095-1.142-2.287
		c-0.953,0-1.714-0.916-2.093-1.104l0.765-0.377c0,0,0.375-0.185,0.759,0c0.379,0.377,0.764,0.565,0.764,0.961
		c0.376,0.521,0.947,0,1.335,0.521C275.634,99.202,275.827,99.956,275.634,100.333z M258.285,80.46
		c-0.567,1.142-1.131,2.207-2.278,2.584c-0.574,0-1.527,0.362-2.667,0c0.574-0.377,1.14-0.55,1.912-1.06l1.513-1.524H258.285z
		 M262.091,89.111c-0.761,0.572-1.328,0.572-2.281,0.388l-1.138-1.521c0.947,0,2.091,0,2.855,0L262.091,89.111z M248.367,74.746
		c-0.953,0.958-1.907,1.335-2.288,2.482c0-0.563-0.187-1.147-0.369-1.524c0.183-0.769,0.75-1.145,0.939-1.321
		C247.224,74.559,247.597,74.559,248.367,74.746z M250.486,77.612c0,0.759-0.34,1.708-1.208,2.66
		c-0.176,0.188-0.721,0.573-0.721,0.573c0-1.145,0.545-2.095,0.545-3.05C249.626,77.612,250.146,77.228,250.486,77.612z
		 M253.147,79.888l-0.757,2.779c-0.955,0.739-2.244,0.377-3.288,0.377c1.384-0.377,2.527-2.008,3.288-3.156
		C252.584,79.7,252.774,79.888,253.147,79.888z M254.104,89.499c0,0.569-0.19,2.849-0.19,2.849c-0.38-1.326-1.329-2.664-2.479-2.664
		c-0.563-0.572-1.123-1.138-1.289-1.706c-0.52-0.573-1.044,0-1.779-0.573c-0.77,0-1.718,0-2.475,0.573v-0.573l1.332-1.525
		c1.333,0.192,2.922,0,3.262,0.953c0.949,0.572,1.904,1.146,2.099,1.529c0,0.185,0,0.185,0,0.565
		C252.958,89.111,253.724,89.306,254.104,89.499z M253.147,95.395l-1.327,1.165c-0.385-0.408,0-1.354-0.567-1.93
		c0-0.381,0.377-0.565,0.183-0.75c-0.183-0.385-2.333-1.146-2.333-1.146c-0.735-0.572-1.688-1.152-2.453-1.902
		c-0.757-0.192-1.331,0.188-2.283,0.38c0-0.191,0-0.38,0-0.38c0.381-0.765,0.381-1.722,1.526-1.722c0.567,0,1.332,0,1.705,0.572
		c0.77,0,1.15,0.765,1.681,0.957c0.868,0.942,1.594,1.334,2.157,1.707c0,0.572,0.194,0.953,0.571,1.148
		C253.147,93.496,252.774,94.63,253.147,95.395z M250.312,98.097l-0.514,1.858l-1.241-3.396c-1.527-1.354-3.239-1.546-4.191-2.311
		c-0.759-0.185-0.759,0.381-1.14,0c0-0.369,0-0.949,0.575-1.515h1.136l1.142,0.565c0.57,0.58,1.904,0.58,1.904,1.714
		c0,0.192-0.196,0.381,0.384,1.138l1.779,0.408L250.312,98.097z M245.127,99.956c0,1.518-2.472,3.609-2.472,3.609
		c0-0.946,0.57-2.092,0.57-3.232c0,0-0.765-0.766-1.527-0.766c-0.565,0.389-0.565,0.766-0.755,1.338
		c-0.573,1.142-1.715,2.283-1.901,3.425c-0.19,0-0.19-0.188-0.19-0.188c0-1.902,0.19-5.139,1.328-6.439
		c0.953-1.142,1.718-1.142,2.853-1.326l0.955,0.185l-0.762,1.142C243.988,98.097,245.127,98.81,245.127,99.956z M238.462,98.81
		c0,0.757-0.187,1.522-0.558,2.095c-0.195-0.758-0.733-1.703-1.649-1.703c-0.752,1.511-0.947,2.084-0.19,4.363
		c-0.562,0.576-0.951,0.765-1.705,1.145c-0.388-0.761-0.388-2.091-0.388-2.852c0-1.334,0.194-2.656,0.574-3.761
		c0.567-0.584,0.957-1.537,1.519-1.945h2.021c-0.914,0-0.914,0.8-0.914,1.361C237.709,97.702,238.462,97.898,238.462,98.81z
		 M233.599,100.905c-0.194,0-0.767-0.572-1.334-0.572c-0.541,1.141,0,1.906,0,3.232c0,0.576-0.193,1.145-0.193,1.145
		c-0.348,0-1.031-0.761-1.203-1.521v-3.041l1.591-2.05C233.599,98.81,233.972,99.956,233.599,100.905z M272.592,48.41
		c0.375-0.953,0.375-2.641-0.386-3.537c-0.379-0.759-1.328-1.14-2.276-1.886l-1.308,0.746c-0.692,0.38-1.042,1.14-1.042,2.036
		c1.22,0.55,2.537,2.072,3.104,3.21h0.574C271.828,48.41,272.207,48.979,272.592,48.41z M266.273,49.551
		c0-0.572-0.188-0.572-0.375-0.572c-0.951,0-0.951-1.522-1.714-1.138c-0.375,0-0.756-0.384-1.322,0c0,0.188,0,0.188,0.373,0.188
		c0.949,0,0.574,1.328,1.332,1.522C264.947,49.551,265.705,49.551,266.273,49.551z M269.165,51.834c0,0,0.376,0,0-0.188
		l-4.023-0.573c-0.375,0.573-1.332,0.573-1.332,1.134h-0.381c0.381,1.511,0.381,3.144,0.381,4.854
		c0.758,0.192,1.525,0.572,1.525,1.712c0.75,0.384,1.517,0.575,2.246,1.14c0.35-0.185,0.52-0.755,0.697-1.326
		c-0.697-0.953-2.38-0.384-2.38-2.095l-1.132-0.384c0-1.12,0-2.198-0.199-2.978l0.199-0.143c0,0.143,0.181,0.338,0.568,0.729
		c0.75,0,1.517,0.192,2.246-0.392c0.35-0.195,0.35-1.119,0.697-1.119C268.623,52.208,268.976,52.208,269.165,51.834z M259.81,47.841
		c-0.375-0.384-1.525,0.188-2.093,0.38c-0.758,0.188-1.326,0.758-1.326,1.33h2.087C258.672,48.979,259.435,48.221,259.81,47.841z
		 M255.623,45.769c-0.19-1.847-2.283-2.036-3.232-2.782h-0.761c-1.483,0.554-1.831,2.08-2.003,3.332
		c0.52,1.71,1.626,0.569,2.38,1.71C252.774,47.457,254.675,46.123,255.623,45.769z M266.851,63.139v-0.938h-1.904l-0.181,0.192
		L266.851,63.139z M258.285,52.208c0-0.373-0.387-0.753-0.948-1.134c-1.523,0-2.857,0-4.189,0h-0.373
		c0,0.761,0.565,1.134,1.14,1.134c0,0.781,0.565,0.924,0.762,1.119c0.576,0.392,0.757,0.392,1.331,0
		c0.567,0.392,0.758-0.338,0.953,0c0,1.153,0,1.663-0.195,2.592c-0.19,1.335-1.332,1.144-2.285,1.716c0,0.569-0.565,1.524,0,2.095
		c0.578-0.38,0.953-0.571,1.912-0.955c0-0.57,0.568-1.14,1.326-1.52C257.717,55.542,258.285,53.911,258.285,52.208z M256.764,62.201
		c-0.373-0.763-1.332,0-2.285-0.381c0,0.381,0,0.763,0.578,1.142C255.623,62.393,256.574,62.201,256.764,62.201z"/>
</g>
</svg>
