<svg id="Design" xmlns="http://www.w3.org/2000/svg" viewBox="0 0 160 70"><defs><style>.cls-1{fill:#fff;}</style></defs><title>Hireup logo</title><path class="cls-1" d="M155.2,44a2.65,2.65,0,0,0-.82-1,3.48,3.48,0,0,0-1.17-.54,5.46,5.46,0,0,0-1.37-.17,4.61,4.61,0,0,0-2,.38,3.87,3.87,0,0,0-1.28.93,3.68,3.68,0,0,0-.91,2.32,3.28,3.28,0,0,0,.92,2.42,3.8,3.8,0,0,0,2.78.92,4.67,4.67,0,0,0,1.84-.33,3.87,3.87,0,0,0,1.29-.88,3.39,3.39,0,0,0,.76-1.25,4.37,4.37,0,0,0,.23-1.41A3.16,3.16,0,0,0,155.2,44Z"/><path class="cls-1" d="M146.25,31a6,6,0,0,0-1.46-2.22,5.59,5.59,0,0,0-2.16-1.25,8.61,8.61,0,0,0-2.58-.38,6.9,6.9,0,0,0-5.61,2.52,12.78,12.78,0,0,0-1.79,3,20,20,0,0,0-1.22,3.54c-0.26,1.11-.48,2.25-0.65,3.41l0,0.3,0,0c-0.39.36-.82,0.73-1.3,1.1s-1,.72-1.5,1.06-1,.64-1.54.9a10.59,10.59,0,0,1-1.4.62,3.27,3.27,0,0,1-1,.22,0.37,0.37,0,0,1-.3-0.09,0.92,0.92,0,0,1-.2-0.42,4.06,4.06,0,0,1-.1-0.82q0-.5,0-1.11a6.86,6.86,0,0,1,.15-1.14l1.42-7.62,0.1-.52a11.71,11.71,0,0,0,.26-1.76V30a4.66,4.66,0,0,0,0-1.19,2,2,0,0,0-.84-1.38A3.56,3.56,0,0,0,122.5,27a4.22,4.22,0,0,0-1.85.39,3.61,3.61,0,0,0-1.22,2l-2.22,10.92a5.65,5.65,0,0,1-.49,1.49,3.78,3.78,0,0,1-.75,1.06,2.86,2.86,0,0,1-.82.65,1.8,1.8,0,0,1-.81.21,0.55,0.55,0,0,1-.34-0.1,1,1,0,0,1-.28-0.34,2.15,2.15,0,0,1-.19-0.56,3.55,3.55,0,0,1-.07-0.66s0-.25.11-0.62l1.81-10.07c0.16-.9.31-1.85,0.44-2.87a1.28,1.28,0,0,0-.67-1.1,3.87,3.87,0,0,0-1.86-.43,2.82,2.82,0,0,0-1.43.43,4,4,0,0,0-1.06,1,6.65,6.65,0,0,0-.76,1.29,12.5,12.5,0,0,0-.52,1.36,10.39,10.39,0,0,0-.32,1.25l-0.16.87c-0.67,3.2-1,5.14-1.21,6.61l-0.06.37a25.92,25.92,0,0,0-.38,4,8.35,8.35,0,0,0,.3,2.39,4.44,4.44,0,0,0,.84,1.62,3.14,3.14,0,0,0,1.26.91,4.75,4.75,0,0,0,3.39-.11,9.08,9.08,0,0,0,1.9-1,14,14,0,0,0,1.82-1.5c0.41-.4.81-0.83,1.2-1.29,0.1,0.38.21,0.75,0.33,1.08a5.93,5.93,0,0,0,.75,1.47,3.42,3.42,0,0,0,1.11,1,4.79,4.79,0,0,0,3.38.13,15.78,15.78,0,0,0,2-.61,20.71,20.71,0,0,0,2-.88l0.08,0c-0.24.44-.47,0.86-0.68,1.26-0.42.8-.83,1.64-1.23,2.5s-0.76,1.71-1.08,2.55a20.88,20.88,0,0,0-.77,2.41,8.9,8.9,0,0,0-.29,2.12,20.42,20.42,0,0,0,.21,3,9.07,9.07,0,0,0,.72,2.52A4.65,4.65,0,0,0,126,65.5a3.74,3.74,0,0,0,2.28.68,5.09,5.09,0,0,0,3.3-1.33,11.28,11.28,0,0,0,2.7-3.64,23.53,23.53,0,0,0,1.85-5.6,35.48,35.48,0,0,0,.69-7.26V48c0-1.75.26-2,.51-2.32l0.08-.09,0.48-.33a28.11,28.11,0,0,0,4.22-2.45,15.14,15.14,0,0,0,2.5-2.33,10.55,10.55,0,0,0,1.74-3,9.17,9.17,0,0,0,.46-3.22,9.05,9.05,0,0,0-.52-3.26h0Zm-4.5,3.15a5.87,5.87,0,0,1-.13,1h0a14.58,14.58,0,0,1-.88,2.38,8,8,0,0,1-.7,1.06l-0.32.42a10.05,10.05,0,0,1-1.47,1.5,5.62,5.62,0,0,1-1.88.91,13.44,13.44,0,0,1,.08-2c0-.19,0-0.35.07-0.48a8.09,8.09,0,0,1,.29-1.39c0.27-1,.49-1.8.69-2.48a7.07,7.07,0,0,1,.7-1.65,3.46,3.46,0,0,1,.95-1.05,2,2,0,0,1,1.19-.36,1.16,1.16,0,0,1,.85.28,1.74,1.74,0,0,1,.46.77A3.08,3.08,0,0,1,141.75,34.13ZM128.61,57.61c0.08-.42.19-0.92,0.32-1.5s0.3-1.21.48-1.88,0.39-1.34.62-2,0.47-1.32.73-1.93h0l0,0.59q0,0.8-.1,2c0,0.46-.05,1-0.06,1.53s0,1.13,0,1.71-0.06,1.15-.1,1.71a10.26,10.26,0,0,1-.21,1.45,3.35,3.35,0,0,1-.35,1,0.32,0.32,0,0,1-.28.22,0.54,0.54,0,0,1-.42-0.18,2.13,2.13,0,0,1-.39-0.59,3.22,3.22,0,0,1-.22-0.69,2.86,2.86,0,0,1-.07-0.49A5.17,5.17,0,0,1,128.61,57.61Z"/><path class="cls-1" d="M54.78,25a4.67,4.67,0,0,0,1.84-.33,3.88,3.88,0,0,0,1.29-.88,3.39,3.39,0,0,0,.76-1.25,4.36,4.36,0,0,0,.23-1.41,3.16,3.16,0,0,0-.3-1.41,2.64,2.64,0,0,0-.82-1,3.48,3.48,0,0,0-1.17-.54A5.47,5.47,0,0,0,55.24,18a4.61,4.61,0,0,0-2,.38,3.87,3.87,0,0,0-1.28.93,3.67,3.67,0,0,0-.91,2.32A3.28,3.28,0,0,0,52,24.07,3.8,3.8,0,0,0,54.78,25Z"/><path class="cls-1" d="M94.69,39.48c-0.39.34-.84,0.69-1.32,1a23.56,23.56,0,0,1-2.54,1.64,17.79,17.79,0,0,1-2.75,1.24,7.9,7.9,0,0,1-2.61.49,3,3,0,0,1-.69-0.07,1.81,1.81,0,0,1-.57-0.25,2.53,2.53,0,0,1-.56-0.52,5.31,5.31,0,0,1-.35-0.49,15.4,15.4,0,0,0,3.11-1.32,13.34,13.34,0,0,0,2.87-2.14,12.23,12.23,0,0,0,2.12-2.88,6.71,6.71,0,0,0,.92-3.12,5.92,5.92,0,0,0-.47-2.38,5.34,5.34,0,0,0-1.29-1.82,5.92,5.92,0,0,0-1.93-1.17,6.79,6.79,0,0,0-2.39-.41,7.17,7.17,0,0,0-2.85.55,8.32,8.32,0,0,0-2.3,1.48,10.16,10.16,0,0,0-1.78,2.13A14,14,0,0,0,78.07,34c-0.33.86-.64,1.86-0.95,3l0,0.09a3.45,3.45,0,0,1-.41.19A4.6,4.6,0,0,1,75,37.5a2.11,2.11,0,0,1-.6-0.15A1,1,0,0,1,73.94,37a2.07,2.07,0,0,1-.33-0.71,4.39,4.39,0,0,1-.14-1.19,4.23,4.23,0,0,1,.06-0.87c0.1-.65.23-1.23,0.34-1.72,0.16-.71.28-1.3,0.35-1.74a7.06,7.06,0,0,0,.11-1.09,2.41,2.41,0,0,0-.21-1,2.28,2.28,0,0,0-.56-0.76,2.46,2.46,0,0,0-.8-0.47,2.73,2.73,0,0,0-.93-0.16,4,4,0,0,0-2.32.71,7.83,7.83,0,0,0-1.71,1.65,12.76,12.76,0,0,0-1.41,2.41L66,33c0-.38,0-0.78,0-1.18,0-.62,0-1.09,0-1.5,0-.24,0-0.45,0-0.65,0-.46,0-0.82,0-1.09a1.51,1.51,0,0,0-.26-0.79,1.06,1.06,0,0,0-.7-0.41A5.77,5.77,0,0,0,64,27.29a5.67,5.67,0,0,0-.89.06,1.69,1.69,0,0,0-.72.28,1.88,1.88,0,0,0-.5.55,4.55,4.55,0,0,0-.38.82A16,16,0,0,0,61,30.86Q60.69,32,60.3,33.63c-0.26,1.11-.48,2.17-0.64,3.14s-0.31,1.95-.44,2.88c-0.06.47-.12,0.93-0.16,1.37l-0.24.21c-0.61.54-1.25,1.07-1.89,1.58A15.13,15.13,0,0,1,55,44.1a3.23,3.23,0,0,1-1.55.49A0.48,0.48,0,0,1,53,44.26a4.16,4.16,0,0,1-.19-1.42,9.66,9.66,0,0,1,.22-1.7l0.08-.45c0.12-.66.25-1.26,0.38-1.85l0.13-.59c0.09-.43.25-1,0.42-1.51s0.3-1,.44-1.54c0.2-.77.34-1.3,0.46-1.74s0.19-.7.28-1,0.2-.79.29-1.15l0.22-.9a6.15,6.15,0,0,0,.23-1.44,1.62,1.62,0,0,0-.42-1.16A2,2,0,0,0,54,27.33a6.07,6.07,0,0,0-1.17.13,5.9,5.9,0,0,0-1.25.4,4.34,4.34,0,0,0-1.11.71,2.52,2.52,0,0,0-.66,1l0,0.08a13.06,13.06,0,0,0-.38,1.26c-0.16.59-.36,1.33-0.65,2.21L48.25,35a7.83,7.83,0,0,1-1.4,2.45c-1.33,1.3-2.63,2.46-3.32,3.08l-0.35.31a14,14,0,0,1-1.71,1.26l-0.6.4a9.33,9.33,0,0,1-1.66,1,3.11,3.11,0,0,1-1.15.29,2,2,0,0,1-1.74-.7A3.61,3.61,0,0,1,35.77,41a22.16,22.16,0,0,1,.44-4c0.53-2.83.91-4.68,1.16-5.53,0.38,0,.78-0.08,1.15-0.11h0.09a13.4,13.4,0,0,0,1.43-.2l2.13-.22,0.3,0,0.63-.08a3.79,3.79,0,0,0,.56-0.1l0.17,0a1.75,1.75,0,0,0,.8-0.4l0.12-.1a2.16,2.16,0,0,0,.39-0.41,1.62,1.62,0,0,0,.27-0.95,3.23,3.23,0,0,0-.1-0.84,1.67,1.67,0,0,0-.42-0.73,1.92,1.92,0,0,0-.81-0.47,4.05,4.05,0,0,0-1.21-.15l-0.41,0-2,.15c-0.5,0-1,.09-1.52.17,0.29-.9.59-1.83,0.91-2.77q0.57-1.69,1.15-3.3c0.21-.59.34-0.91,0.48-1.26s0.23-.58.4-1L43,15.67a6.51,6.51,0,0,0,.37-1.56c0-.47.07-0.89,0.07-1.24a2.83,2.83,0,0,0-.22-1.14,2.17,2.17,0,0,0-.63-0.84,2.63,2.63,0,0,0-.91-0.47,3.61,3.61,0,0,0-1-.15,3.34,3.34,0,0,0-2.25.83,5.66,5.66,0,0,0-1.47,2.11c-1,2.48-1.73,4.18-2.61,6.8l-2.4,7.22-5.33.29-4.46.27c0.36-1.15.69-2.27,1-3.35,0.36-1.25.67-2.46,0.94-3.59s0.48-2.17.63-3.11a15.48,15.48,0,0,0,.24-2.44,9.42,9.42,0,0,0-.65-3.68,6.74,6.74,0,0,0-1.77-2.5,6.9,6.9,0,0,0-2.57-1.4,10.56,10.56,0,0,0-3-.43,11.11,11.11,0,0,0-2.31.27,15.64,15.64,0,0,0-2.5.77A16.47,16.47,0,0,0,9.68,9.57a12.23,12.23,0,0,0-2,1.5L6.5,12.32a17.67,17.67,0,0,0-1.64,2.26,2.33,2.33,0,0,0,.38,3,2.15,2.15,0,0,0,2.45-.05L8.36,17A15.39,15.39,0,0,1,9.53,15.9c0.42-.31.83-0.6,1.21-0.85a18.86,18.86,0,0,1,2.2-1.25,10.29,10.29,0,0,1,1.81-.68,3.66,3.66,0,0,1,2.56,0,2,2,0,0,1,.75.66,3,3,0,0,1,.44,1.08,7.23,7.23,0,0,1,.14,1.48,11.52,11.52,0,0,1-.21,2.12,19,19,0,0,1-.57,2.25c-0.27.83-.7,2-1.29,3.66-0.27.7-.54,1.54-0.81,2.36-0.17.52-.33,1-0.47,1.42L8,28.82A2.23,2.23,0,0,0,6,31.21L6,32A2.23,2.23,0,0,0,8.44,34l4.67-.39c-0.58,1.76-1.5,4.51-2,5.85A27.05,27.05,0,0,0,9.44,46a5.54,5.54,0,0,0,0,.73,2.27,2.27,0,0,0,.27,1.11,2.62,2.62,0,0,0,.72.83,3.3,3.3,0,0,0,1,.51,3.77,3.77,0,0,0,1.13.17,2.74,2.74,0,0,0,2.1-1,6.75,6.75,0,0,0,1.29-1.92l0.41-.82a7.16,7.16,0,0,0,.44-1c0.06-.17.13-0.38,0.26-0.77s0.34-1,.53-1.7,0.41-1.37.59-1.89c0.37-1,.76-2.21,1.16-3.47s0.75-2.36,1.14-3.52l5.09-.5,5.06-.54c-0.24.94-.47,1.93-0.68,3q-0.38,1.81-.63,3.06c-0.17.84-.29,1.59-0.38,2.25a13.19,13.19,0,0,0-.13,1.67,9.1,9.1,0,0,0,.52,3.18,7.08,7.08,0,0,0,1.43,2.38,6.06,6.06,0,0,0,2.15,1.49,7,7,0,0,0,2.67.51,9.77,9.77,0,0,0,2.71-.43,16.45,16.45,0,0,0,3-1.26,25.53,25.53,0,0,0,3.23-2.06c0.64-.48,1.3-1,2-1.59,0,0.18,0,.35,0,0.52a7.66,7.66,0,0,0,.22,1.88,3.76,3.76,0,0,0,.76,1.52,3.54,3.54,0,0,0,1.39,1A7.4,7.4,0,0,0,53.65,49a19.63,19.63,0,0,0,2.79-1.16,21.2,21.2,0,0,0,2.49-1.48,5.21,5.21,0,0,0,.41,1.5,2.85,2.85,0,0,0,1,1.17,2.81,2.81,0,0,0,1.64.45,2.15,2.15,0,0,0,.86-0.17,2,2,0,0,0,.75-0.59,5.14,5.14,0,0,0,.6-1,14.54,14.54,0,0,0,.59-1.43V46.27c0-.08,1.7-8.31,3.64-10.48,0.13-.06.16,0,0.14,0.6a4.67,4.67,0,0,0,.12,1.11,9.18,9.18,0,0,0,.9,2.51,5.19,5.19,0,0,0,1.7,1.87,5,5,0,0,0,2.83.72,6.42,6.42,0,0,0,1.9-.29c0.29-.09.6-0.2,0.92-0.33,0.07,0.32.19,1.27,0.27,1.55a9.11,9.11,0,0,0,1.58,3.06,7.75,7.75,0,0,0,2.65,2.12,8.3,8.3,0,0,0,3.7.79,11.46,11.46,0,0,0,2.65-.31,15.74,15.74,0,0,0,2.51-.82,18.32,18.32,0,0,0,2.3-1.17c0.72-.43,1.4-0.88,2-1.33s1.18-.9,1.75-1.39A3.34,3.34,0,0,0,97.54,42a3.4,3.4,0,0,0-1-2.52A1.38,1.38,0,0,0,94.69,39.48ZM82.1,37.1l0.37,0A6.25,6.25,0,0,1,83,35.6c0.29-.66.54-1.21,0.75-1.64a4.17,4.17,0,0,1,.74-1.07A3,3,0,0,1,87,32a0.64,0.64,0,0,1,.52.47,2.15,2.15,0,0,1,.22,1.25,3.7,3.7,0,0,1-.87,1.7,6.89,6.89,0,0,1-1.54,1.35,7.38,7.38,0,0,1-1.7.83l-0.5.14a0.5,0.5,0,0,1-.45-0.12,0.51,0.51,0,0,1-.16-0.46L82.1,37.1h0Z"/></svg>