<?xml version="1.0" encoding="UTF-8"?>
<!DOCTYPE svg PUBLIC "-//W3C//DTD SVG 1.1//EN" "http://www.w3.org/Graphics/SVG/1.1/DTD/svg11.dtd">
<!-- Creator: CorelDRAW X8 -->
<svg xmlns="http://www.w3.org/2000/svg" xml:space="preserve" width="2024px" height="2229px" version="1.1" style="shape-rendering:geometricPrecision; text-rendering:geometricPrecision; image-rendering:optimizeQuality; fill-rule:evenodd; clip-rule:evenodd"
viewBox="0 0 2024 2229"
 xmlns:xlink="http://www.w3.org/1999/xlink">
 <defs>
  <style type="text/css">
   <![CDATA[
    .fil0 {fill:#D1D1D1}
   ]]>
  </style>
 </defs>
 <g id="Layer_x0020_1">
  <metadata id="CorelCorpID_0Corel-Layer"/>
  <path class="fil0" d="M1012 971c268,0 486,-217 486,-485 0,-268 -218,-486 -486,-486 -268,0 -486,217 -486,486l0 0c0,268 218,485 486,485zm-819 327c-96,243 -193,931 -193,931l825 0 -248 -1136c-149,0 -288,-37 -384,205zm819 -205l-234 327 184 809 100 0 184 -809 -234 -327zm819 205c-96,-242 -235,-205 -384,-205l-248 1136 825 0c0,0 -97,-688 -193,-931zm-79 420l-290 0 0 -64 290 0 0 64 0 0z"/>
 </g>
</svg>
