<svg id="Design" xmlns="http://www.w3.org/2000/svg" viewBox="0 0 400 300"><defs><style>.cls-1{fill:#01bfff;}.cls-2{fill:#fff;}</style></defs><title>Hireup Logo Blue</title><rect class="cls-1" width="400" height="300"/><path class="cls-2" d="M291.42,157.59a3,3,0,0,0-.91-1.1,3.88,3.88,0,0,0-1.3-.6,6.08,6.08,0,0,0-1.52-.19,5.14,5.14,0,0,0-2.19.42,4.31,4.31,0,0,0-1.43,1,4.09,4.09,0,0,0-1,2.59,3.65,3.65,0,0,0,1,2.7,4.23,4.23,0,0,0,3.09,1,5.2,5.2,0,0,0,2-.37,4.31,4.31,0,0,0,1.44-1,3.78,3.78,0,0,0,.85-1.39,4.86,4.86,0,0,0,.26-1.57A3.52,3.52,0,0,0,291.42,157.59Z"/><path class="cls-2" d="M281.46,143.06a6.64,6.64,0,0,0-1.62-2.47,6.22,6.22,0,0,0-2.4-1.39,9.59,9.59,0,0,0-2.87-.42,7.68,7.68,0,0,0-6.24,2.81,14.23,14.23,0,0,0-2,3.34,22.24,22.24,0,0,0-1.36,3.94c-0.29,1.23-.53,2.51-0.72,3.79l0,0.34,0,0c-0.43.4-.92,0.81-1.44,1.22s-1.09.81-1.67,1.18-1.16.71-1.72,1a11.79,11.79,0,0,1-1.56.69,3.64,3.64,0,0,1-1.15.24,0.41,0.41,0,0,1-.33-0.1,1,1,0,0,1-.22-0.47,4.52,4.52,0,0,1-.11-0.91q0-.56,0-1.23a7.64,7.64,0,0,1,.16-1.27l1.58-8.48,0.11-.58a13,13,0,0,0,.29-2l0-.36a5.19,5.19,0,0,0,0-1.33,2.22,2.22,0,0,0-.93-1.54,4,4,0,0,0-2.11-.5,4.7,4.7,0,0,0-2.06.44,4,4,0,0,0-1.36,2.26l-2.47,12.16a6.3,6.3,0,0,1-.55,1.66,4.21,4.21,0,0,1-.83,1.18,3.19,3.19,0,0,1-.92.73,2,2,0,0,1-.9.24,0.61,0.61,0,0,1-.38-0.12,1.1,1.1,0,0,1-.32-0.38,2.39,2.39,0,0,1-.21-0.62,4,4,0,0,1-.08-0.73q0-.08.12-0.69l2-11.21c0.18-1,.35-2.06.49-3.2a1.42,1.42,0,0,0-.75-1.23,4.3,4.3,0,0,0-2.07-.48,3.14,3.14,0,0,0-1.59.47,4.48,4.48,0,0,0-1.18,1.09,7.41,7.41,0,0,0-.84,1.43,13.92,13.92,0,0,0-.58,1.52,11.57,11.57,0,0,0-.36,1.39l-0.18,1c-0.75,3.56-1.1,5.72-1.35,7.36l-0.06.41a28.86,28.86,0,0,0-.42,4.5,9.3,9.3,0,0,0,.33,2.66,4.94,4.94,0,0,0,.94,1.8,3.5,3.5,0,0,0,1.4,1,5.29,5.29,0,0,0,3.78-.13,10.11,10.11,0,0,0,2.11-1.13,15.61,15.61,0,0,0,2-1.67c0.46-.45.91-0.93,1.34-1.44,0.11,0.43.24,0.83,0.37,1.21a6.61,6.61,0,0,0,.84,1.64,3.81,3.81,0,0,0,1.24,1.12,5.34,5.34,0,0,0,3.76.15,17.58,17.58,0,0,0,2.17-.68,23.06,23.06,0,0,0,2.2-1l0.09,0c-0.27.49-.52,1-0.76,1.41-0.46.89-.92,1.83-1.37,2.79s-0.85,1.91-1.2,2.83a23.25,23.25,0,0,0-.86,2.69,9.91,9.91,0,0,0-.33,2.36,22.74,22.74,0,0,0,.23,3.33,10.1,10.1,0,0,0,.81,2.81,5.18,5.18,0,0,0,1.59,2,4.17,4.17,0,0,0,2.54.76,5.66,5.66,0,0,0,3.67-1.48,12.56,12.56,0,0,0,3-4.05,26.19,26.19,0,0,0,2.06-6.24,39.51,39.51,0,0,0,.77-8.09V162c0-2,.28-2.26.57-2.59l0.09-.1,0.53-.37a31.3,31.3,0,0,0,4.7-2.72,16.85,16.85,0,0,0,2.79-2.6,11.75,11.75,0,0,0,1.94-3.32,10.21,10.21,0,0,0,.51-3.58,10.08,10.08,0,0,0-.58-3.63h0Zm-5,3.51a6.53,6.53,0,0,1-.15,1.13h0a16.23,16.23,0,0,1-1,2.65,8.91,8.91,0,0,1-.78,1.18c-0.08.1-.18,0.22-0.36,0.46a11.19,11.19,0,0,1-1.64,1.67,6.26,6.26,0,0,1-2.09,1,15,15,0,0,1,.09-2.2c0-.21.05-0.38,0.07-0.53a9,9,0,0,1,.32-1.55c0.3-1.09.55-2,.77-2.76a7.88,7.88,0,0,1,.78-1.84,3.86,3.86,0,0,1,1.05-1.17,2.22,2.22,0,0,1,1.33-.4,1.29,1.29,0,0,1,.95.31,1.93,1.93,0,0,1,.52.86A3.43,3.43,0,0,1,276.44,146.56Zm-14.63,26.15c0.09-.46.21-1,0.36-1.67s0.33-1.34.54-2.09,0.44-1.49.69-2.24,0.53-1.47.81-2.15h0l0,0.66q0,0.9-.11,2.18c0,0.51-.06,1.08-0.06,1.7s0,1.25-.05,1.91-0.06,1.28-.11,1.9a11.42,11.42,0,0,1-.23,1.62,3.74,3.74,0,0,1-.39,1.06,0.36,0.36,0,0,1-.32.24,0.6,0.6,0,0,1-.47-0.2A2.37,2.37,0,0,1,262,175a3.59,3.59,0,0,1-.25-0.77,3.18,3.18,0,0,1-.08-0.54A5.76,5.76,0,0,1,261.81,172.71Z"/><path class="cls-2" d="M179.6,136.38a5.2,5.2,0,0,0,2-.37,4.32,4.32,0,0,0,1.44-1,3.78,3.78,0,0,0,.85-1.39,4.85,4.85,0,0,0,.26-1.57,3.52,3.52,0,0,0-.33-1.58,2.94,2.94,0,0,0-.91-1.1,3.88,3.88,0,0,0-1.3-.6,6.09,6.09,0,0,0-1.52-.19,5.14,5.14,0,0,0-2.19.42,4.31,4.31,0,0,0-1.43,1,4.09,4.09,0,0,0-1,2.59,3.66,3.66,0,0,0,1,2.7A4.23,4.23,0,0,0,179.6,136.38Z"/><path class="cls-2" d="M224,152.53c-0.44.37-.93,0.77-1.47,1.17a26.24,26.24,0,0,1-2.82,1.82,19.81,19.81,0,0,1-3.06,1.39,8.79,8.79,0,0,1-2.91.54,3.3,3.3,0,0,1-.76-0.08,2,2,0,0,1-.63-0.27,2.82,2.82,0,0,1-.62-0.58,5.92,5.92,0,0,1-.4-0.54,17.15,17.15,0,0,0,3.47-1.47,14.85,14.85,0,0,0,3.19-2.38,13.62,13.62,0,0,0,2.36-3.21,7.47,7.47,0,0,0,1-3.47,6.59,6.59,0,0,0-.52-2.65,6,6,0,0,0-1.44-2,6.6,6.6,0,0,0-2.15-1.3,7.56,7.56,0,0,0-2.66-.46,8,8,0,0,0-3.18.62,9.26,9.26,0,0,0-2.56,1.64,11.31,11.31,0,0,0-2,2.37,15.63,15.63,0,0,0-1.39,2.8c-0.36,1-.72,2.07-1.06,3.31l0,0.1a3.84,3.84,0,0,1-.45.21,5.12,5.12,0,0,1-1.94.27,2.35,2.35,0,0,1-.67-0.17,1.17,1.17,0,0,1-.46-0.37,2.31,2.31,0,0,1-.37-0.79,4.88,4.88,0,0,1-.15-1.33,4.71,4.71,0,0,1,.06-1c0.12-.73.26-1.37,0.38-1.91,0.18-.79.31-1.44,0.39-1.94a7.86,7.86,0,0,0,.13-1.21,2.69,2.69,0,0,0-.23-1.13,2.54,2.54,0,0,0-.62-0.85,2.74,2.74,0,0,0-.9-0.53,3,3,0,0,0-1-.18,4.4,4.4,0,0,0-2.58.79,8.71,8.71,0,0,0-1.9,1.84,14.21,14.21,0,0,0-1.57,2.68l-0.47,1c0-.43,0-0.87,0-1.32,0-.69,0-1.22,0-1.67,0-.27,0-0.51,0-0.73,0-.51,0-0.92,0-1.22a1.68,1.68,0,0,0-.29-0.88A1.18,1.18,0,0,0,191,139a6.43,6.43,0,0,0-1-.07,6.32,6.32,0,0,0-1,.07,1.89,1.89,0,0,0-.8.31,2.09,2.09,0,0,0-.56.62,5.07,5.07,0,0,0-.42.91,17.8,17.8,0,0,0-.64,2.08q-0.31,1.23-.75,3.08c-0.29,1.24-.53,2.42-0.72,3.5s-0.35,2.17-.48,3.21c-0.07.52-.13,1-0.18,1.53l-0.27.24c-0.68.6-1.39,1.19-2.1,1.76a16.84,16.84,0,0,1-2.09,1.42,3.59,3.59,0,0,1-1.72.55,0.54,0.54,0,0,1-.6-0.37,4.63,4.63,0,0,1-.21-1.58,10.76,10.76,0,0,1,.25-1.89l0.09-.5c0.13-.74.28-1.41,0.43-2.06l0.15-.66c0.1-.48.28-1.06,0.46-1.68s0.33-1.11.49-1.71c0.22-.86.38-1.44,0.52-1.93s0.21-.78.31-1.16,0.22-.88.32-1.29,0.17-.7.25-1a6.84,6.84,0,0,0,.26-1.6,1.8,1.8,0,0,0-.47-1.29,2.2,2.2,0,0,0-1.65-.5,6.76,6.76,0,0,0-1.3.14,6.56,6.56,0,0,0-1.39.44,4.84,4.84,0,0,0-1.23.79,2.81,2.81,0,0,0-.74,1.16l0,0.09a14.54,14.54,0,0,0-.43,1.41c-0.18.66-.41,1.48-0.72,2.46l-0.58,2.1a8.71,8.71,0,0,1-1.56,2.73c-1.48,1.44-2.92,2.74-3.7,3.43l-0.39.35a15.58,15.58,0,0,1-1.9,1.41l-0.66.45a10.38,10.38,0,0,1-1.85,1.08,3.46,3.46,0,0,1-1.28.32,2.22,2.22,0,0,1-1.94-.78,4,4,0,0,1-.61-2.38,24.67,24.67,0,0,1,.49-4.49c0.58-3.15,1-5.21,1.29-6.15,0.42-.05.87-0.09,1.28-0.12h0.1a14.93,14.93,0,0,0,1.59-.22l2.37-.24,0.34,0,0.7-.09a4.22,4.22,0,0,0,.63-0.11l0.19,0a2,2,0,0,0,.89-0.45l0.13-.12a2.4,2.4,0,0,0,.44-0.46,1.8,1.8,0,0,0,.3-1.05,3.59,3.59,0,0,0-.12-0.94,1.86,1.86,0,0,0-.47-0.82,2.14,2.14,0,0,0-.9-0.52,4.51,4.51,0,0,0-1.35-.17l-0.45,0-2.2.16c-0.55,0-1.12.1-1.69,0.19,0.32-1,.66-2,1-3.09q0.64-1.88,1.28-3.67c0.23-.65.38-1,0.53-1.4s0.26-.65.45-1.16l1.18-3.2a7.25,7.25,0,0,0,.41-1.74c0-.52.07-1,0.07-1.38a3.16,3.16,0,0,0-.24-1.26,2.42,2.42,0,0,0-.7-0.93,2.93,2.93,0,0,0-1-.52,4,4,0,0,0-1.14-.16,3.72,3.72,0,0,0-2.5.92,6.3,6.3,0,0,0-1.64,2.35c-1.16,2.76-1.93,4.65-2.9,7.58l-2.67,8-5.93.32-5,.3c0.4-1.28.77-2.53,1.11-3.73,0.4-1.39.75-2.74,1-4s0.53-2.42.71-3.46a17.24,17.24,0,0,0,.26-2.72,10.49,10.49,0,0,0-.72-4.09,7.51,7.51,0,0,0-2-2.78,7.68,7.68,0,0,0-2.87-1.55,11.76,11.76,0,0,0-3.35-.48,12.37,12.37,0,0,0-2.57.3,17.42,17.42,0,0,0-2.78.85,18.34,18.34,0,0,0-2.71,1.36,13.61,13.61,0,0,0-2.23,1.67l-1.32,1.39A19.67,19.67,0,0,0,124,124.8a2.59,2.59,0,0,0,.43,3.33,2.39,2.39,0,0,0,2.73-.06l0.74-.6a17.14,17.14,0,0,1,1.3-1.21c0.47-.35.92-0.67,1.35-0.94a21,21,0,0,1,2.45-1.39,11.46,11.46,0,0,1,2-.76,4.08,4.08,0,0,1,2.85,0,2.27,2.27,0,0,1,.83.74,3.29,3.29,0,0,1,.48,1.2,8.05,8.05,0,0,1,.16,1.65,12.83,12.83,0,0,1-.23,2.36,21.11,21.11,0,0,1-.64,2.5c-0.3.93-.77,2.26-1.44,4.08-0.3.78-.61,1.72-0.9,2.62-0.19.58-.37,1.13-0.53,1.58l-8,.72a2.48,2.48,0,0,0-2.29,2.66l0.06,0.83a2.48,2.48,0,0,0,2.66,2.29l5.2-.43c-0.64,2-1.67,5-2.23,6.52a30.12,30.12,0,0,0-1.85,7.21,6.16,6.16,0,0,0-.05.81,2.53,2.53,0,0,0,.3,1.23,2.92,2.92,0,0,0,.8.92,3.68,3.68,0,0,0,1.12.57,4.19,4.19,0,0,0,1.26.19,3.06,3.06,0,0,0,2.34-1.11,7.52,7.52,0,0,0,1.44-2.14c0.12-.24.26-0.53,0.46-0.91a8,8,0,0,0,.49-1.17c0.06-.19.14-0.43,0.29-0.86s0.38-1.17.59-1.89,0.46-1.52.66-2.11c0.41-1.16.84-2.46,1.29-3.86s0.84-2.63,1.27-3.92l5.67-.56,5.63-.6c-0.26,1-.52,2.15-0.75,3.29q-0.42,2-.7,3.41c-0.19.93-.33,1.77-0.42,2.5a14.69,14.69,0,0,0-.15,1.86,10.13,10.13,0,0,0,.58,3.54,7.89,7.89,0,0,0,1.59,2.65,6.75,6.75,0,0,0,2.39,1.66,7.78,7.78,0,0,0,3,.56,10.88,10.88,0,0,0,3-.48,18.32,18.32,0,0,0,3.38-1.4,28.42,28.42,0,0,0,3.6-2.29c0.72-.53,1.45-1.12,2.18-1.77,0,0.2,0,.39,0,0.58a8.53,8.53,0,0,0,.24,2.09,4.19,4.19,0,0,0,.85,1.7A3.94,3.94,0,0,0,173,163.3a8.24,8.24,0,0,0,5.35-.15,21.86,21.86,0,0,0,3.11-1.29,23.6,23.6,0,0,0,2.77-1.65,5.8,5.8,0,0,0,.46,1.67,3.17,3.17,0,0,0,1.07,1.3,3.13,3.13,0,0,0,1.83.5,2.4,2.4,0,0,0,1-.19,2.23,2.23,0,0,0,.83-0.66,5.72,5.72,0,0,0,.67-1.08,16.19,16.19,0,0,0,.66-1.6l0-.06c0-.09,1.89-9.25,4.05-11.66,0.14-.07.18,0,0.16,0.67a5.2,5.2,0,0,0,.13,1.24,10.23,10.23,0,0,0,1,2.79,5.77,5.77,0,0,0,1.9,2.08,5.62,5.62,0,0,0,3.15.81,7.15,7.15,0,0,0,2.11-.32c0.33-.1.67-0.22,1-0.37,0.08,0.36.21,1.42,0.3,1.73a10.14,10.14,0,0,0,1.76,3.4,8.63,8.63,0,0,0,3,2.36,9.24,9.24,0,0,0,4.13.88,12.76,12.76,0,0,0,3-.35,17.53,17.53,0,0,0,2.79-.92,20.4,20.4,0,0,0,2.56-1.31c0.8-.48,1.56-1,2.26-1.48s1.32-1,2-1.54a3.72,3.72,0,0,0,1.31-2.7,3.78,3.78,0,0,0-1.08-2.8A1.54,1.54,0,0,0,224,152.53Zm-14-2.65,0.42,0a7,7,0,0,1,.56-1.71c0.32-.73.6-1.34,0.84-1.83a4.64,4.64,0,0,1,.83-1.2,3.3,3.3,0,0,1,2.77-1,0.71,0.71,0,0,1,.58.52,2.4,2.4,0,0,1,.24,1.39,4.12,4.12,0,0,1-1,1.89,7.67,7.67,0,0,1-1.71,1.5,8.22,8.22,0,0,1-1.89.92l-0.55.16a0.55,0.55,0,0,1-.5-0.13,0.57,0.57,0,0,1-.18-0.51l-0.41-.06h0Z"/></svg>