<svg id="Design" xmlns="http://www.w3.org/2000/svg" viewBox="0 0 26 26"><defs><style>.cls-1{fill:#01a8ff;}</style></defs><title>Instagram</title><path class="cls-1" d="M25.92,7.64a9.53,9.53,0,0,0-.6-3.16,6.38,6.38,0,0,0-1.5-2.3,6.37,6.37,0,0,0-2.3-1.5,9.54,9.54,0,0,0-3.16-.6C17,0,16.53,0,13,0S9,0,7.64.08a9.54,9.54,0,0,0-3.16.6,6.37,6.37,0,0,0-2.3,1.5,6.37,6.37,0,0,0-1.5,2.3,9.54,9.54,0,0,0-.6,3.16C0,9,0,9.47,0,13s0,4,.08,5.36a9.54,9.54,0,0,0,.6,3.16,6.37,6.37,0,0,0,1.5,2.3,6.37,6.37,0,0,0,2.3,1.5,9.54,9.54,0,0,0,3.16.6C9,26,9.47,26,13,26s4,0,5.36-.08a9.54,9.54,0,0,0,3.16-.6,6.65,6.65,0,0,0,3.8-3.8,9.53,9.53,0,0,0,.6-3.16C26,17,26,16.53,26,13S26,9,25.92,7.64ZM12.84,21a7.87,7.87,0,1,1,7.87-7.87A7.87,7.87,0,0,1,12.84,21ZM21,6.82A1.84,1.84,0,1,1,22.86,5,1.84,1.84,0,0,1,21,6.82Z"/><circle class="cls-1" cx="12.84" cy="13.16" r="5.11"/></svg>