<svg id="Design" xmlns="http://www.w3.org/2000/svg" viewBox="0 0 30.68 24.94"><defs><style>.cls-1{fill:#01a8ff;}</style></defs><title>Twitter</title><path class="cls-1" d="M30.68,3a12.58,12.58,0,0,1-3.62,1A6.31,6.31,0,0,0,29.84.46a12.6,12.6,0,0,1-4,1.53A6.3,6.3,0,0,0,15.11,7.73a17.87,17.87,0,0,1-13-6.58,6.3,6.3,0,0,0,1.95,8.4,6.27,6.27,0,0,1-2.85-.79s0,0.05,0,.08a6.3,6.3,0,0,0,5,6.17,6.32,6.32,0,0,1-2.84.11A6.3,6.3,0,0,0,9.32,19.5,12.63,12.63,0,0,1,1.5,22.2,12.75,12.75,0,0,1,0,22.11a17.82,17.82,0,0,0,9.65,2.83c11.58,0,17.91-9.59,17.91-17.91q0-.41,0-0.81A12.79,12.79,0,0,0,30.68,3Z"/></svg>