<?xml version="1.0" encoding="UTF-8"?>
<!DOCTYPE svg PUBLIC "-//W3C//DTD SVG 1.1//EN" "http://www.w3.org/Graphics/SVG/1.1/DTD/svg11.dtd">
<!-- Creator: CorelDRAW X8 -->
<svg xmlns="http://www.w3.org/2000/svg" xml:space="preserve" width="2550px" height="2550px" version="1.1" style="shape-rendering:geometricPrecision; text-rendering:geometricPrecision; image-rendering:optimizeQuality; fill-rule:evenodd; clip-rule:evenodd"
viewBox="0 0 2550 2550"
 xmlns:xlink="http://www.w3.org/1999/xlink">
 <defs>
  <style type="text/css">
   <![CDATA[
    .fil0 {fill:#2B2A29;fill-rule:nonzero}
   ]]>
  </style>
 </defs>
 <g id="Layer_x0020_1">
  <metadata id="CorelCorpID_0Corel-Layer"/>
  <path class="fil0" d="M2173 2173l-378 0 0 -592c0,-141 -3,-323 -197,-323 -196,0 -227,154 -227,313l0 602 -377 0 0 -1217 362 0 0 166 5 0c51,-95 174,-196 358,-196 383,0 454,252 454,579l0 668zm-1606 -1383c-121,0 -219,-99 -219,-220 0,-121 98,-219 219,-219 121,0 219,98 219,219 0,121 -98,220 -219,220zm189 1383l-378 0 0 -1217 378 0 0 1217zm1605 -2173l-2173 0c-104,0 -188,82 -188,184l0 2182c0,102 84,184 188,184l2173 0c104,0 189,-82 189,-184l0 -2182c0,-102 -85,-184 -189,-184z"/>
 </g>
</svg>
