<svg id="Design" xmlns="http://www.w3.org/2000/svg" viewBox="0 0 30 30"><defs><style>.cls-1{fill:#fff;}</style></defs><title>Hireup Mockups</title><path class="cls-1" d="M28.74,3.22H23.19V1.12a1.14,1.14,0,0,0-2.28,0v2.1H16.14V1.12a1.14,1.14,0,0,0-2.28,0v2.1H8.78V1A1.14,1.14,0,0,0,6.5,1V3.22H1.26A1.13,1.13,0,0,0,.13,4.35V28.87A1.13,1.13,0,0,0,1.26,30H28.74a1.13,1.13,0,0,0,1.14-1.13V4.35A1.13,1.13,0,0,0,28.74,3.22ZM2.4,5.47H6.5v3a1.14,1.14,0,0,0,2.28,0v-3h5.08V8.62a1.14,1.14,0,0,0,2.28,0V5.47h4.78V8.62a1.14,1.14,0,0,0,2.28,0V5.47h4.4V12.6H2.4V5.47Zm0,22.28V14.85H27.6v12.9H2.4Z"/><rect class="cls-1" x="7.42" y="16.87" width="3.34" height="2.9"/><rect class="cls-1" x="13.64" y="16.87" width="3.34" height="2.9"/><rect class="cls-1" x="19.86" y="16.87" width="3.34" height="2.9"/><rect class="cls-1" x="7.42" y="21.91" width="3.34" height="2.9"/><rect class="cls-1" x="13.64" y="21.91" width="3.34" height="2.9"/><rect class="cls-1" x="19.86" y="21.91" width="3.34" height="2.9"/></svg>