<svg id="Design" xmlns="http://www.w3.org/2000/svg" viewBox="0 0 30 30"><defs><style>.cls-1{fill:#fff;stroke:#fff;stroke-miterlimit:10;}</style></defs><title>Hireup Mockups</title><path class="cls-1" d="M3.34,2.83A2.65,2.65,0,0,0,.52,5.26V19.15a2.65,2.65,0,0,0,2.82,2.43H14L22,28.41a0.43,0.43,0,0,0,.69-0.28l-0.78-6.55h4.8a2.65,2.65,0,0,0,2.82-2.43V5.26a2.65,2.65,0,0,0-2.82-2.43H3.34ZM28.68,5.26V19.15a1.88,1.88,0,0,1-2,1.74H21.42a0.39,0.39,0,0,0-.4.38l0.72,6L14.47,21a0.44,0.44,0,0,0-.29-0.1H3.34a1.88,1.88,0,0,1-2-1.74V5.26a1.88,1.88,0,0,1,2-1.74H26.66A1.88,1.88,0,0,1,28.68,5.26Z"/></svg>