<svg id="Design" xmlns="http://www.w3.org/2000/svg" viewBox="0 0 30 30"><title>Money icon</title><path d="M2.63,21.51A6.43,6.43,0,0,0,4,26.73,8.13,8.13,0,0,0,9.55,29h10.9A8.13,8.13,0,0,0,26,26.73a6.25,6.25,0,0,0,1.34-5.22c-0.77-6.2-6-11.36-8.42-13.17L21.48,6l0.05-.15a1.76,1.76,0,0,0,0-1.45,2,2,0,0,0-1-1l-1.19-.46A2.08,2.08,0,0,0,17.24,1H12.7a2.08,2.08,0,0,0-2.07,1.91l-1.19.46A2,2,0,0,0,8.36,5.81L8.41,6l2.53,2.38C8.62,10.14,3.4,15.31,2.63,21.51ZM10.12,4.88l1.19-.46,0.93,1.7a0.85,0.85,0,0,0,.77.46,1.22,1.22,0,0,0,.41-0.1,0.91,0.91,0,0,0,.36-1.19L12.49,3a0.05,0.05,0,0,0-.05-0.05,0.35,0.35,0,0,1,.31-0.21H17.3a0.35,0.35,0,0,1,.31.21L17.55,3,16.32,5.29a0.93,0.93,0,0,0,.36,1.19,1.22,1.22,0,0,0,.41.1,0.85,0.85,0,0,0,.77-0.46l0.88-1.65,1.14,0.46A0.11,0.11,0,0,1,20,5h0L17.35,7.51a23.3,23.3,0,0,0-4.65,0L10.06,5A0.19,0.19,0,0,1,10.12,4.88ZM12.7,9.27a16.74,16.74,0,0,1,4.55,0c0.62,0.31,7.54,5.68,8.37,12.5a4.58,4.58,0,0,1-.93,3.82c-1.45,1.65-4.24,1.7-4.24,1.7H18.38a11.31,11.31,0,0,0,2-.88,0.88,0.88,0,0,0-.83-1.55c-3.2,1.76-8.88,2.38-10.43,2.32H9a6,6,0,0,1-3.72-1.7,4.63,4.63,0,0,1-.93-3.82C5.21,14.95,12.13,9.52,12.7,9.27Z"/><path d="M17.56,16.1a2.5,2.5,0,0,0-.78-0.28,5.16,5.16,0,0,0-1-.09,2.68,2.68,0,0,0-1.55.44,2.53,2.53,0,0,0-1,1.35H17l-0.23.76H13.09c0,0.13,0,.26,0,0.4s0,0.28,0,.43v0.28a2.31,2.31,0,0,0,0,.26h3.33l-0.23.73h-3a2.41,2.41,0,0,0,.72,1.42,2.32,2.32,0,0,0,1.57.47,2.35,2.35,0,0,0,1.72-.67l0.67,0.55a2.82,2.82,0,0,1-1,.67,3.64,3.64,0,0,1-1.44.28,3.57,3.57,0,0,1-2.32-.7,3.34,3.34,0,0,1-1.11-2h-1l0.26-.73h0.63a2.62,2.62,0,0,1,0-.27V19.08a7.3,7.3,0,0,1,0-.79H11l0.29-.76H12a3.82,3.82,0,0,1,.55-1.18,3.3,3.3,0,0,1,.85-0.84,3.68,3.68,0,0,1,1.09-.5,4.84,4.84,0,0,1,1.29-.16,5.57,5.57,0,0,1,1.13.11,3.65,3.65,0,0,1,.91.29Z"/><path d="M15.37,23.27A3.73,3.73,0,0,1,13,22.54a3.44,3.44,0,0,1-1.14-2H10.73l0.37-1h0.58s0-.08,0-0.12V19.08c0-.22,0-0.43,0-0.64h-1l0.4-1.06h0.77a3.91,3.91,0,0,1,.54-1.12,3.48,3.48,0,0,1,.89-0.87,3.85,3.85,0,0,1,1.14-.52A5.52,5.52,0,0,1,17,14.81a3.82,3.82,0,0,1,.94.31L18,15.18l-0.39,1.15-0.16-.09A2.37,2.37,0,0,0,16.75,16a5,5,0,0,0-1-.09,2.55,2.55,0,0,0-1.46.42,2.3,2.3,0,0,0-.82,1.08h3.78l-0.33,1.06H13.22c0,0.08,0,.17,0,0.25s0,0.27,0,.42v0.28s0,0.07,0,.11h3.39l-0.33,1H13.32A2.16,2.16,0,0,0,14,21.7a2.19,2.19,0,0,0,1.47.44A2.2,2.2,0,0,0,17,21.51l0.1-.09L18,22.16l-0.11.12a3,3,0,0,1-1.06.71A3.81,3.81,0,0,1,15.37,23.27Zm-4.21-3h0.9l0,0.12a3.21,3.21,0,0,0,1.06,2,3.44,3.44,0,0,0,2.23.66,3.51,3.51,0,0,0,1.38-.26,2.89,2.89,0,0,0,.84-0.52l-0.45-.37a2.65,2.65,0,0,1-.67.42,2.6,2.6,0,0,1-1.06.2,2.48,2.48,0,0,1-1.67-.51A2.57,2.57,0,0,1,13,20.42l0-.18H16l0.14-.43H12.91l0-.13a2.46,2.46,0,0,1,0-.28V19.11c0-.15,0-0.3,0-0.44s0-.28,0-0.41l0-.13H16.7l0.14-.46H13l0.07-.2a2.69,2.69,0,0,1,1-1.43,2.85,2.85,0,0,1,1.63-.47,5.35,5.35,0,0,1,1.06.1,2.88,2.88,0,0,1,.66.21l0.19-.55a3.83,3.83,0,0,0-.75-0.23,5.21,5.21,0,0,0-2.34,0,3.54,3.54,0,0,0-1,.48,3.16,3.16,0,0,0-.81.8,3.69,3.69,0,0,0-.53,1.13l0,0.11H11.35l-0.17.46H12l0,0.17a7.22,7.22,0,0,0,0,.77v0.31a2.47,2.47,0,0,0,0,.26l0,0.17H11.31Z"/></svg>