<svg id="Design" xmlns="http://www.w3.org/2000/svg" viewBox="0 0 30 30"><defs><style>.cls-1{fill:#fff;stroke:#fff;stroke-miterlimit:10;stroke-width:0.5px;}</style></defs><title>Hireup Mockups</title><path class="cls-1" d="M28.64,23H25.51V12s0,0,0-.06a10.51,10.51,0,0,0-21,0s0,0,0,.06V23H1.36a0.78,0.78,0,0,0,0,1.57h9.07a4.64,4.64,0,0,0,9.14,0h9.07A0.78,0.78,0,1,0,28.64,23ZM15,26.87a3.08,3.08,0,0,1-3-2.27H18A3.08,3.08,0,0,1,15,26.87ZM23.95,23H6.05V12.06s0,0,0,0a8.95,8.95,0,0,1,17.9,0s0,0,0,0V23h0Z"/></svg>