<svg id="Design" xmlns="http://www.w3.org/2000/svg" viewBox="0 0 30 30"><defs><style>.cls-1{fill:#fff;stroke:#fff;stroke-miterlimit:10;stroke-width:0.75px;}</style></defs><title>Hireup Mockups</title><path class="cls-1" d="M12.44,1.26a0.32,0.32,0,0,0-.31.26L11.55,4.69a10.81,10.81,0,0,0-1.39.58L7.49,3.44a0.33,0.33,0,0,0-.41,0L3.47,7.09a0.33,0.33,0,0,0,0,.41l1.85,2.67a10.79,10.79,0,0,0-.58,1.38l-3.19.58a0.33,0.33,0,0,0-.26.32v5.11a0.33,0.33,0,0,0,.26.31L4.7,18.45a10.77,10.77,0,0,0,.59,1.38L3.44,22.49a0.33,0.33,0,0,0,0,.41l3.61,3.62a0.33,0.33,0,0,0,.41,0l2.67-1.84a10.83,10.83,0,0,0,1.4.58l0.58,3.18a0.33,0.33,0,0,0,.31.27h5.11a0.33,0.33,0,0,0,.31-0.27l0.58-3.18a10.75,10.75,0,0,0,1.39-.58l2.67,1.84a0.33,0.33,0,0,0,.41,0l3.62-3.62a0.33,0.33,0,0,0,0-.41l-1.85-2.67a10.78,10.78,0,0,0,.58-1.37l3.2-.59a0.33,0.33,0,0,0,.26-0.31V12.44a0.33,0.33,0,0,0-.26-0.32l-3.2-.58a10.79,10.79,0,0,0-.57-1.37L26.55,7.5a0.33,0.33,0,0,0,0-.41L22.91,3.48a0.33,0.33,0,0,0-.41,0L19.83,5.27a10.75,10.75,0,0,0-1.39-.58L17.87,1.52a0.33,0.33,0,0,0-.31-0.26H12.44ZM12.7,1.9H17.3L17.86,5a0.33,0.33,0,0,0,.21.25,10.18,10.18,0,0,1,1.66.69,0.33,0.33,0,0,0,.33,0l2.59-1.79,3.25,3.25L24.1,9.95a0.33,0.33,0,0,0,0,.33,10.13,10.13,0,0,1,.67,1.65,0.33,0.33,0,0,0,.25.22L28.1,12.7v4.58L25,17.86a0.33,0.33,0,0,0-.25.22,10.12,10.12,0,0,1-.68,1.65,0.33,0.33,0,0,0,0,.33l1.79,2.59-3.24,3.24-2.59-1.79a0.33,0.33,0,0,0-.33,0,10.18,10.18,0,0,1-1.66.69,0.33,0.33,0,0,0-.21.25L17.3,28.1H12.7L12.14,25a0.33,0.33,0,0,0-.21-0.25,10.25,10.25,0,0,1-1.67-.69,0.33,0.33,0,0,0-.33,0L7.35,25.88,4.11,22.64l1.8-2.59a0.33,0.33,0,0,0,0-.33,10.13,10.13,0,0,1-.69-1.66A0.33,0.33,0,0,0,5,17.85l-3.1-.56V12.7L5,12.14a0.33,0.33,0,0,0,.25-0.22,10.13,10.13,0,0,1,.68-1.66,0.33,0.33,0,0,0,0-.33L4.11,7.35,7.35,4.11,9.95,5.9a0.33,0.33,0,0,0,.33,0,10.25,10.25,0,0,1,1.66-.69A0.33,0.33,0,0,0,12.14,5L12.7,1.9h0Zm2.2,7A6.07,6.07,0,1,0,21,15,6.08,6.08,0,0,0,14.9,8.93Zm0,0.64A5.43,5.43,0,1,1,9.47,15,5.43,5.43,0,0,1,14.9,9.57Z"/></svg>